# xmcd CD database file generated by OrangeCD 5.1
#
# Track frame offsets:
#	150
#	14925
#	31802
#	44100
#	57462
#	70435
#	84370
#	99555
#	114767
#	125645
#	136650
#	150520
#	163155
#	175242
#	186912
#	204865
#	218107
#	229197
#	243417
#	255175
#
# Disc length: 3663 seconds
#
# Revision: 6
# Processed by: cddbd v1.4PL0 Copyright (c) Steve Scherf et al.
# Submitted via: OrangeCD 5.1
#
DISCID=150e4d14
DTITLE=Glen Campbell - 20 Golden Greats
DYEAR=1987
DGENRE=Country
TTITLE0=Rhinestone Cowboy
TTITLE1=Both Sides Now
TTITLE2=By The Time I Get To Phoenix
TTITLE3=Gentle On My Mind
TTITLE4=Too Many Mornings
TTITLE5=Wichita Lineman
TTITLE6=One Last Time
TTITLE7=Don't Pull Your Love - Then You Can Tell Me Goodbye
TTITLE8=Reason To Believe
TTITLE9=It's Only Make Believe
TTITLE10=Honey Come Back
TTITLE11=Give Me Back That Old Familiar Feeling
TTITLE12=Galveston
TTITLE13=Dreams Of The Everyday Housewife
TTITLE14=The Last Thing On My Mind
TTITLE15=Where's The Playground, Susie
TTITLE16=Try A Little Kindness
TTITLE17=Country Boy (You Got Your Feet In L.A.)
TTITLE18=All I Have To Do Is Dream (With Bobbie Gentry)
TTITLE19=Amazing Grace
EXTD=YEAR: 1987 ID3G: 2
EXTT0=
EXTT1=
EXTT2=
EXTT3=
EXTT4=
EXTT5=
EXTT6=
EXTT7=
EXTT8=
EXTT9=
EXTT10=
EXTT11=
EXTT12=
EXTT13=
EXTT14=
EXTT15=
EXTT16=
EXTT17=
EXTT18=
EXTT19=
PLAYORDER=
